<svg xmlns="http://www.w3.org/2000/svg" width="24" height="24"><rect width="24" height="24" opacity="0"></rect><g><path d="M12 0.5Q8.88 0.5 6.24 2.05Q3.6 3.6 2.05 6.24Q0.5 8.88 0.5 12Q0.5 15.12 2.05 17.76Q3.6 20.4 6.24 21.95Q8.88 23.5 12 23.5Q15.12 23.5 17.76 21.95Q20.4 20.4 21.95 17.76Q23.5 15.12 23.5 12Q23.5 8.88 21.95 6.24Q20.4 3.6 17.76 2.05Q15.12 0.5 12 0.5ZM12 20.5Q9.62 20.5 7.68 19.38Q5.74 18.26 4.62 16.32Q3.5 14.38 3.5 12Q3.5 9.62 4.62 7.68Q5.74 5.74 7.68 4.62Q9.62 3.5 12 3.5Q14.38 3.5 16.32 4.62Q18.26 5.74 19.38 7.68Q20.5 9.62 20.5 12Q20.5 14.38 19.38 16.32Q18.26 18.26 16.32 19.38Q14.38 20.5 12 20.5Z" fill="rgba(0,0,0,0.9019607843137255)"></path><path d="M13.39 6.77Q13.39 6.19 12.98 5.77Q12.58 5.35 12 5.35Q11.42 5.35 11.02 5.77Q10.61 6.19 10.61 6.77L10.61 11.98Q10.61 12.5 10.92 12.89L11.02 13.01L15.24 17.23Q15.65 17.64 16.22 17.64Q16.8 17.64 17.21 17.23Q17.62 16.8 17.62 16.22Q17.62 15.65 17.21 15.24L13.39 11.42L13.39 6.77Z" fill="rgba(0,0,0,0.9019607843137255)"></path></g></svg>