<svg xmlns="http://www.w3.org/2000/svg" width="24" height="24"><rect width="24" height="24" opacity="0"></rect><g><path d="M19.99 12.02Q19.61 12.02 19.34 12.3Q19.08 12.58 19.08 12.96L19.08 19.99Q19.08 20.26 18.91 20.41Q18.74 20.57 18.48 20.57L15.89 20.57L15.89 16.44Q15.89 15.38 15.36 14.5Q14.83 13.61 13.94 13.08Q13.06 12.55 12 12.55Q10.92 12.55 10.03 13.08Q9.14 13.61 8.62 14.5Q8.09 15.38 8.09 16.44L8.09 20.57L5.47 20.57Q5.23 20.57 5.06 20.4Q4.9 20.23 4.9 19.97L4.9 12.96Q4.9 12.58 4.63 12.3Q4.37 12.02 3.98 12.02Q3.6 12.02 3.34 12.3Q3.07 12.58 3.07 12.96L3.07 19.97Q3.07 20.64 3.4 21.19Q3.72 21.74 4.27 22.07Q4.82 22.39 5.47 22.39L18.48 22.39Q19.13 22.39 19.68 22.07Q20.23 21.74 20.57 21.19Q20.9 20.64 20.9 19.99L20.9 12.96Q20.9 12.58 20.64 12.3Q20.38 12.02 19.99 12.02ZM9.94 16.44Q9.94 15.58 10.54 14.98Q11.14 14.38 12 14.38Q12.86 14.38 13.46 14.98Q14.06 15.58 14.06 16.44L14.06 20.57L9.94 20.57L9.94 16.44ZM22.66 11.57Q22.9 11.3 22.9 10.92Q22.9 10.54 22.63 10.27L14.57 2.64Q13.85 1.97 12.92 1.73Q12 1.49 11.08 1.73Q10.15 1.97 9.43 2.64L1.39 10.27Q1.1 10.54 1.1 10.92Q1.1 11.3 1.37 11.59Q1.61 11.83 2.02 11.84Q2.42 11.86 2.66 11.62L10.73 3.96Q11.28 3.41 12.01 3.41Q12.74 3.41 13.3 3.96L21.36 11.59Q21.62 11.86 22.01 11.86Q22.39 11.86 22.66 11.57Z" fill="rgba(0,0,0,0.9019607843137255)"></path></g></svg>