<svg xmlns="http://www.w3.org/2000/svg" width="24" height="24"><rect width="24" height="24" opacity="0"></rect><g mask="url(#hms_mask_0)"><path d="M20.47 12.46Q18.26 10.32 14.98 7.25L13.15 5.54Q12.65 5.06 11.99 5.06Q11.33 5.06 10.82 5.54L3.55 12.46Q3.34 12.67 3.23 12.94Q3.12 13.2 3.12 13.46L3.12 19.99Q3.12 20.64 3.44 21.19Q3.77 21.74 4.32 22.07Q4.87 22.39 5.52 22.39L18.5 22.39Q19.15 22.39 19.69 22.07Q20.23 21.74 20.56 21.19Q20.88 20.64 20.88 19.99L20.88 13.44Q20.88 13.15 20.77 12.89Q20.66 12.62 20.47 12.46Z" fill="rgba(0,0,0,0.9019607843137255)"></path><path d="M1.37 11.59Q1.61 11.83 2.02 11.84Q2.42 11.86 2.66 11.62L10.73 3.96Q11.28 3.41 12.01 3.41Q12.74 3.41 13.3 3.96L21.36 11.59Q21.62 11.86 22.01 11.86Q22.39 11.86 22.66 11.57Q22.9 11.3 22.9 10.92Q22.9 10.54 22.63 10.27L14.57 2.64Q13.85 1.97 12.92 1.73Q12 1.49 11.08 1.73Q10.15 1.97 9.43 2.64L1.39 10.27Q1.1 10.54 1.1 10.92Q1.1 11.3 1.37 11.59Z" fill="rgba(0,0,0,0.9019607843137255)"></path></g><defs><mask id="hms_mask_0"><rect width="24" height="24" fill="#ffffff"></rect><g><path d="M9.07 20.64L9.07 16.15Q9.07 15.05 9.92 14.27Q10.78 13.49 12 13.49Q13.22 13.49 14.08 14.27Q14.93 15.05 14.93 16.15L14.93 20.64Z" fill="#000000"></path></g></mask></defs></svg>