<svg xmlns="http://www.w3.org/2000/svg" width="24" height="24"><rect width="24" height="24" opacity="0"></rect><g><path d="M11.98 11.02Q13.3 11.02 14.4 10.36Q15.5 9.7 16.15 8.59Q16.8 7.49 16.8 6.17Q16.8 4.85 16.15 3.74Q15.5 2.64 14.4 1.98Q13.3 1.32 11.98 1.32Q10.66 1.32 9.54 1.98Q8.42 2.64 7.78 3.74Q7.13 4.85 7.13 6.17Q7.13 7.49 7.78 8.59Q8.42 9.7 9.54 10.36Q10.66 11.02 11.98 11.02ZM11.98 3.1Q12.82 3.1 13.51 3.5Q14.21 3.91 14.62 4.62Q15.02 5.33 15.02 6.17Q15.02 7.01 14.62 7.7Q14.21 8.4 13.51 8.81Q12.82 9.22 11.98 9.22Q11.14 9.22 10.43 8.81Q9.72 8.4 9.31 7.7Q8.9 7.01 8.9 6.17Q8.9 5.33 9.31 4.62Q9.72 3.91 10.43 3.5Q11.14 3.1 11.98 3.1ZM18.72 22.25Q19.44 22.25 20.03 21.9Q20.62 21.55 20.95 20.96Q21.29 20.38 21.29 19.68Q21.29 17.59 20.02 15.84Q18.74 14.09 16.78 13.08Q14.81 12.07 12.77 12.07L11.16 12.07Q9.14 12.07 7.16 13.08Q5.18 14.09 3.92 15.84Q2.66 17.59 2.66 19.68Q2.66 20.38 3.01 20.96Q3.36 21.55 3.95 21.9Q4.54 22.25 5.21 22.25L18.72 22.25ZM12.77 13.87Q14.35 13.87 15.91 14.65Q17.47 15.43 18.48 16.76Q19.49 18.1 19.49 19.68Q19.49 20.02 19.27 20.24Q19.06 20.47 18.72 20.47L5.23 20.47Q4.9 20.47 4.67 20.24Q4.44 20.02 4.44 19.68Q4.44 18.1 5.45 16.76Q6.46 15.43 8.03 14.65Q9.6 13.87 11.18 13.87L12.77 13.87Z" fill="rgba(0,0,0,0.9019607843137255)"></path></g></svg>