<?xml version="1.0" encoding="utf-8"?>
<!-- Generator: Adobe Illustrator 26.0.2, SVG Export Plug-In . SVG Version: 6.00 Build 0)  -->
<svg version="1.1" id="图层_1" xmlns="http://www.w3.org/2000/svg" xmlns:xlink="http://www.w3.org/1999/xlink" x="0px" y="0px"
	 viewBox="0 0 24 24" style="enable-background:new 0 0 24 24;" xml:space="preserve">
<style type="text/css">
	.st0{fill-opacity:0;}
</style>
<rect class="st0" width="24" height="24"/>
<g>
	<path d="M12,11c0.9,0,1.7-0.2,2.4-0.7c0.7-0.4,1.3-1,1.8-1.8c0.4-0.7,0.6-1.5,0.6-2.4s-0.2-1.7-0.6-2.4c-0.4-0.7-1-1.3-1.8-1.8
		c-0.7-0.4-1.5-0.7-2.4-0.7c-0.9,0-1.7,0.2-2.4,0.7C8.8,2.4,8.2,3,7.8,3.7C7.3,4.5,7.1,5.3,7.1,6.2c0,0.9,0.2,1.7,0.7,2.4
		c0.4,0.7,1,1.3,1.8,1.8C10.3,10.8,11.1,11,12,11z M18.7,22.2c0.5,0,0.9-0.1,1.3-0.4s0.7-0.5,0.9-0.9c0.2-0.4,0.3-0.8,0.3-1.3
		c0-1.4-0.4-2.7-1.3-3.8c-0.9-1.2-1.9-2.1-3.2-2.8c-1.3-0.7-2.7-1-4-1h-1.6c-1.3,0-2.7,0.3-4,1c-1.3,0.7-2.4,1.6-3.2,2.8
		s-1.3,2.4-1.3,3.8c0,0.5,0.1,0.9,0.3,1.3c0.2,0.4,0.5,0.7,0.9,0.9s0.8,0.4,1.3,0.4H18.7z"/>
</g>
</svg>
