<svg xmlns="http://www.w3.org/2000/svg" width="24" height="24"><rect width="24" height="24" opacity="0"></rect><g><path d="M18.7 22.18Q19.03 21.94 19.18 21.55Q19.32 21.17 19.22 20.78L17.9 15.46Q17.81 15.14 17.9 14.86Q18 14.57 18.26 14.38L22.42 10.9Q22.73 10.61 22.84 10.21Q22.94 9.82 22.82 9.46Q22.68 9.07 22.37 8.82Q22.06 8.57 21.65 8.54L16.25 8.14Q15.94 8.11 15.7 7.94Q15.46 7.78 15.36 7.49L13.25 2.4Q13.08 2.02 12.74 1.79Q12.41 1.56 12 1.56Q11.59 1.56 11.26 1.79Q10.92 2.02 10.75 2.4L8.64 7.49Q8.54 7.78 8.3 7.94Q8.06 8.11 7.75 8.14L2.35 8.54Q1.94 8.57 1.63 8.82Q1.32 9.07 1.18 9.46Q1.06 9.82 1.16 10.21Q1.27 10.61 1.58 10.9L5.74 14.38Q5.98 14.59 6.08 14.87Q6.19 15.14 6.1 15.46L4.78 20.78Q4.68 21.17 4.82 21.56Q4.97 21.96 5.33 22.18Q5.64 22.42 6.05 22.43Q6.46 22.44 6.79 22.2L11.4 19.22Q11.69 19.06 11.99 19.06Q12.29 19.06 12.58 19.22L17.18 22.2Q17.47 22.42 17.93 22.4Q18.38 22.39 18.7 22.18ZM7.87 9.91Q8.69 9.89 9.35 9.41Q10.01 8.93 10.32 8.16L12 4.1L13.68 8.16Q14.02 8.93 14.68 9.41Q15.34 9.89 16.13 9.91L20.42 10.25L17.11 12.98Q16.49 13.49 16.24 14.28Q15.98 15.07 16.18 15.86L17.21 20.09L13.56 17.74Q12.86 17.28 12.01 17.28Q11.16 17.28 10.46 17.74L6.79 20.09L7.85 15.86Q8.04 15.07 7.78 14.28Q7.51 13.49 6.89 12.98L3.58 10.25L7.87 9.91Z" fill="rgba(0,0,0,0.9019607843137255)"></path></g></svg>