<svg xmlns="http://www.w3.org/2000/svg" width="24" height="24"><rect width="24" height="24" opacity="0"></rect><g><path d="M22.44 10.9Q22.75 10.63 22.86 10.24Q22.97 9.84 22.85 9.46Q22.7 9.07 22.39 8.81Q22.08 8.54 21.65 8.52L16.25 8.11Q15.94 8.09 15.71 7.93Q15.48 7.78 15.36 7.46L13.25 2.38Q13.1 1.99 12.76 1.76Q12.41 1.54 12 1.54Q11.59 1.54 11.24 1.76Q10.9 1.99 10.75 2.38L8.64 7.46Q8.5 7.78 8.28 7.93Q8.06 8.09 7.75 8.11L2.35 8.52Q1.92 8.54 1.6 8.81Q1.27 9.07 1.15 9.46Q1.03 9.84 1.14 10.24Q1.25 10.63 1.56 10.9L5.74 14.38Q5.95 14.57 6.06 14.86Q6.17 15.14 6.07 15.43L4.75 20.76Q4.66 21.17 4.8 21.55Q4.94 21.94 5.3 22.2Q5.64 22.42 6.05 22.43Q6.46 22.44 6.82 22.22L11.42 19.25Q11.69 19.08 11.99 19.08Q12.29 19.08 12.55 19.25L17.16 22.22Q17.54 22.44 17.94 22.44Q18.34 22.44 18.7 22.2Q19.06 21.94 19.19 21.55Q19.32 21.17 19.22 20.76L17.93 15.43Q17.83 15.12 17.93 14.84Q18.02 14.57 18.24 14.38L22.44 10.9Z" fill="rgba(0,0,0,0.9019607843137255)"></path></g></svg>