<svg xmlns="http://www.w3.org/2000/svg" width="24" height="24"><rect width="24" height="24" opacity="0"></rect><g><path d="M12 0.26Q11.4 0.26 10.96 0.71Q10.51 1.15 10.51 1.75L10.51 5.66Q10.51 6.26 10.96 6.71Q11.4 7.15 12 7.15Q12.6 7.15 13.04 6.71Q13.49 6.26 13.49 5.66L13.49 3.38Q15.58 3.72 17.23 4.93Q18.89 6.14 19.82 7.99Q20.76 9.84 20.76 12Q20.76 14.45 19.61 16.45Q18.46 18.46 16.45 19.61Q14.45 20.76 12 20.76Q9.55 20.76 7.55 19.61Q5.54 18.46 4.39 16.45Q3.24 14.45 3.24 12Q3.24 10.2 3.89 8.65Q4.54 7.1 5.81 5.81Q6.24 5.35 6.24 4.74Q6.24 4.13 5.81 3.67Q5.35 3.26 4.75 3.25Q4.15 3.24 3.7 3.67Q2.02 5.33 1.14 7.5Q0.26 9.67 0.26 12Q0.26 15.19 1.85 17.88Q3.43 20.57 6.12 22.15Q8.81 23.74 12 23.74Q15.17 23.74 17.87 22.15Q20.57 20.57 22.15 17.88Q23.74 15.19 23.74 12Q23.74 8.81 22.15 6.12Q20.57 3.43 17.87 1.85Q15.17 0.26 12 0.26Z" fill="rgba(0,0,0,0.9019607843137255)"></path><path d="M10.7 13.15Q11.18 13.73 11.95 13.76Q12.72 13.8 13.27 13.27Q13.8 12.72 13.76 11.95Q13.73 11.18 13.15 10.7L8.38 6.62Q8.02 6.26 7.51 6.28Q7.01 6.29 6.62 6.67Q6.31 7.06 6.3 7.55Q6.29 8.04 6.62 8.4L10.7 13.15Z" fill="rgba(0,0,0,0.9019607843137255)"></path></g></svg>