<svg xmlns="http://www.w3.org/2000/svg" width="24" height="24"><rect width="24" height="24" opacity="0"></rect><g><path d="M11.98 2.11Q11.26 3 10.66 4.01Q10.06 5.02 9.58 6.14Q10.75 6.34 11.99 6.34Q13.22 6.34 14.35 6.14Q13.42 3.82 11.98 2.11ZM19.63 3.94Q18.31 2.69 16.68 1.91Q15.05 1.13 13.2 0.94Q14.11 2.04 14.81 3.24Q15.5 4.44 15.98 5.74Q17.81 5.16 19.63 3.94ZM10.75 0.94Q8.93 1.15 7.31 1.92Q5.69 2.69 4.37 3.91Q6.05 5.11 7.99 5.71Q8.47 4.42 9.17 3.22Q9.86 2.02 10.75 0.94ZM9.07 16.3Q10.56 16.01 12.02 16Q13.49 15.98 14.9 16.27Q15.14 15.5 15.28 14.7Q15.41 13.9 15.46 13.06L15.48 12.82L8.47 12.82Q8.64 14.74 9.07 16.3ZM11.98 21.89Q12.72 20.98 13.32 19.97Q13.92 18.96 14.35 17.86Q13.18 17.66 11.98 17.66Q10.78 17.66 9.6 17.86Q10.06 18.96 10.66 19.97Q11.26 20.98 11.98 21.89ZM15.46 10.94Q15.41 10.1 15.28 9.3Q15.14 8.5 14.9 7.73Q13.51 8.02 11.98 8.02Q10.44 8.02 9.07 7.7Q8.62 9.29 8.47 11.18L15.48 11.18ZM0.91 12.82Q1.06 14.52 1.64 16.03Q2.23 17.54 3.24 18.84Q5.28 17.38 7.44 16.7Q6.91 14.71 6.82 12.82L0.91 12.82ZM23.09 11.18Q22.94 9.5 22.34 7.98Q21.74 6.46 20.76 5.16Q18.82 6.58 16.51 7.32Q17.02 9.12 17.14 11.18L23.09 11.18ZM16.54 16.68Q18.74 17.38 20.78 18.84Q21.77 17.54 22.36 16.02Q22.94 14.5 23.09 12.82L17.14 12.82Q17.04 14.83 16.54 16.68ZM13.22 23.04Q15.05 22.85 16.69 22.08Q18.34 21.31 19.63 20.06Q17.78 18.82 15.98 18.26Q15.5 19.56 14.81 20.75Q14.11 21.94 13.22 23.04ZM4.37 20.06Q5.69 21.29 7.32 22.07Q8.95 22.85 10.78 23.04Q9.86 21.94 9.17 20.75Q8.47 19.56 7.99 18.26Q6.24 18.82 4.37 20.06ZM7.44 7.3Q5.28 6.62 3.24 5.16Q2.26 6.43 1.66 7.96Q1.06 9.48 0.91 11.18L6.82 11.18Q6.91 9.29 7.44 7.3Z" fill="rgba(0,0,0,0.9019607843137255)"></path></g></svg>