<svg xmlns="http://www.w3.org/2000/svg" width="24" height="24"><rect width="24" height="24" opacity="0"></rect><g><path d="M12 0.89Q9 0.89 6.43 2.38Q3.86 3.86 2.38 6.43Q0.89 9 0.89 12Q0.89 15 2.38 17.57Q3.86 20.14 6.43 21.62Q9 23.11 12 23.11Q15 23.11 17.57 21.62Q20.14 20.14 21.62 17.57Q23.11 15 23.11 12Q23.11 9 21.62 6.43Q20.14 3.86 17.57 2.38Q15 0.89 12 0.89ZM17.09 11.14Q16.99 9.24 16.49 7.42Q18.07 6.91 19.34 6.17Q20.16 7.22 20.68 8.48Q21.19 9.74 21.31 11.14L17.09 11.14ZM8.64 11.14Q8.71 9.46 9.19 7.85Q10.42 8.11 11.99 8.11Q13.56 8.11 14.81 7.87Q15.29 9.43 15.36 11.14L8.64 11.14ZM15.36 12.86Q15.26 14.47 14.76 16.13Q12.02 15.6 9.24 16.13Q8.74 14.47 8.64 12.86L15.36 12.86ZM15.96 5.78Q15.38 4.27 14.57 3Q15.55 3.26 16.44 3.74Q17.33 4.22 18.07 4.87Q17.09 5.4 15.96 5.78ZM12.26 2.64Q13.46 4.2 14.26 6.19Q13.2 6.38 12.01 6.38Q10.82 6.38 9.77 6.17Q10.18 5.18 10.67 4.31Q11.16 3.43 11.78 2.64Q11.9 2.62 12.02 2.62Q12.14 2.62 12.26 2.64ZM8.06 5.76Q6.96 5.4 5.93 4.85Q6.67 4.2 7.57 3.73Q8.47 3.26 9.43 3Q8.59 4.32 8.06 5.76ZM4.68 6.12Q6.05 6.91 7.51 7.39Q6.98 9.26 6.91 11.11L2.69 11.11Q2.78 9.72 3.31 8.46Q3.84 7.2 4.68 6.12ZM6.91 12.86Q6.98 14.59 7.54 16.58Q6.02 17.06 4.68 17.86Q3.84 16.78 3.31 15.52Q2.78 14.26 2.69 12.86L6.91 12.86ZM8.11 18.22Q8.64 19.63 9.55 21.02Q8.57 20.76 7.64 20.28Q6.72 19.8 5.93 19.13Q6.96 18.58 8.11 18.22ZM11.86 21.36Q11.33 20.69 10.9 19.97Q10.46 19.25 10.1 18.43L9.82 17.81Q11.02 17.59 12 17.59Q12.98 17.59 14.18 17.81Q14.11 17.98 13.87 18.53Q13.51 19.3 13.09 20.02Q12.67 20.74 12.17 21.36Q12.07 21.36 12.01 21.36Q11.95 21.36 11.86 21.36ZM15.91 18.19Q17.04 18.55 18.07 19.13Q17.3 19.8 16.38 20.29Q15.46 20.78 14.47 21.02Q15.36 19.61 15.91 18.19ZM19.34 17.83Q17.93 17.02 16.46 16.56Q17.02 14.76 17.09 12.86L21.34 12.86Q21.22 14.26 20.7 15.52Q20.18 16.78 19.34 17.83Z" fill="rgba(0,0,0,0.9019607843137255)"></path></g></svg>